#N canvas 0 233 1054 534 10;
#X declare -lib mrpeach;
#X obj -609 -1744 tgl 15 0 empty empty empty 17 7 0 10 -262144 -1 -1
0 1;
#X obj -318 -1417 SynthVoice;
#X msg -786 -1520 0;
#X msg -732 -1522 2;
#X msg -680 -1525 4;
#X msg -625 -1525 5;
#X msg -520 -1527 9;
#X msg -466 -1527 11;
#X msg -575 -1527 7;
#X obj -537 -1373 pack;
#X msg -494 -1362 127;
#X obj -715 -1443 +;
#X obj -492 -1384 loadbang;
#X obj -510 -1462 hsl 128 15 0 127 0 0 empty empty empty -2 -8 0 10
-262144 -1 -1 0 1;
#X obj -543 -1327 PolySynth;
#X obj -610 -1692 counter 0 23;
#X msg -406 -1524 0;
#X msg -352 -1526 2;
#X msg -300 -1529 4;
#X msg -245 -1529 5;
#X msg -140 -1531 9;
#X msg -86 -1531 11;
#X msg -34 -1532 12;
#X msg -195 -1531 7;
#X obj -267 -1452 +;
#X obj -637 -1639 sel 0 1 2 3 4 5 6 7 8 9 10 11 12 13 14;
#X msg -40 -1465 12;
#X obj -609 -1717 metro 200;
#X obj -669 -1689 r sel;
#X obj -784 -1784 import mrpeach;
#X obj -90 -1708 unpackOSC;
#X obj -90 -1737 udpreceive 9001;
#X obj -90 -1682 unpack s f f;
#X obj -184 -1681 print;
#X obj 104 -1544 dsp;
#X obj 102 -1573 tgl 15 0 empty empty empty 17 7 0 10 -262144 -1 -1
1 1;
#X obj 100 -1601 loadbang;
#X msg -477 -1417 53;
#X msg -49 -1390 \; pd-PolySynthSequencer.pd vis 0;
#X connect 0 0 27 0;
#X connect 2 0 11 0;
#X connect 3 0 11 0;
#X connect 4 0 11 0;
#X connect 5 0 11 0;
#X connect 6 0 11 0;
#X connect 7 0 11 0;
#X connect 8 0 11 0;
#X connect 9 0 14 0;
#X connect 10 0 9 1;
#X connect 11 0 9 0;
#X connect 12 0 10 0;
#X connect 12 0 26 0;
#X connect 12 0 37 0;
#X connect 13 0 11 1;
#X connect 16 0 24 0;
#X connect 17 0 24 0;
#X connect 18 0 24 0;
#X connect 19 0 24 0;
#X connect 20 0 24 0;
#X connect 21 0 24 0;
#X connect 22 0 24 0;
#X connect 23 0 24 0;
#X connect 24 0 11 0;
#X connect 25 0 2 0;
#X connect 25 1 3 0;
#X connect 25 2 4 0;
#X connect 25 3 5 0;
#X connect 25 4 8 0;
#X connect 25 5 6 0;
#X connect 25 6 7 0;
#X connect 25 7 16 0;
#X connect 25 8 17 0;
#X connect 25 9 18 0;
#X connect 25 10 19 0;
#X connect 25 11 23 0;
#X connect 25 12 20 0;
#X connect 25 13 21 0;
#X connect 25 14 22 0;
#X connect 26 0 24 1;
#X connect 27 0 15 0;
#X connect 28 0 25 0;
#X connect 30 0 32 0;
#X connect 30 0 33 0;
#X connect 31 0 30 0;
#X connect 32 1 25 0;
#X connect 35 0 34 0;
#X connect 36 0 35 0;
#X connect 36 0 38 0;
#X connect 37 0 11 1;
