#N canvas 924 303 641 555 10;
#X obj 102 160 poly 5 1;
#X obj 101 186 pack f f f;
#X obj 101 211 route 1 2 3 4 5 6 7 8 9 10 11 12;
#X obj 101 132 inlet;
#X obj 146 450 SynthVoice;
#X obj 100 520 SynthVoice;
#X obj 115 496 SynthVoice;
#X obj 131 472 SynthVoice;
#X obj 290 235 SynthVoice;
#X obj 274 258 SynthVoice;
#X obj 258 282 SynthVoice;
#X obj 242 305 SynthVoice;
#X obj 226 328 SynthVoice;
#X obj 210 352 SynthVoice;
#X obj 196 378 SynthVoice;
#X obj 180 401 SynthVoice;
#X obj 164 425 SynthVoice;
#X connect 0 0 1 0;
#X connect 0 1 1 1;
#X connect 0 2 1 2;
#X connect 1 0 2 0;
#X connect 2 0 5 0;
#X connect 2 1 6 0;
#X connect 2 2 7 0;
#X connect 2 3 4 0;
#X connect 2 4 16 0;
#X connect 2 5 15 0;
#X connect 2 6 14 0;
#X connect 2 7 13 0;
#X connect 2 8 12 0;
#X connect 2 9 11 0;
#X connect 2 10 10 0;
#X connect 2 11 9 0;
#X connect 2 12 8 0;
#X connect 3 0 0 0;
