#N canvas 15 402 618 477 10;
#X obj 115 21 inlet;
#X obj 116 120 mtof;
#X obj 125 275 *~;
#X obj 209 120 delay 100;
#X obj 185 96 bng 15 250 50 0 empty empty empty 17 7 0 10 -262144 -1
-1;
#X obj 119 53 unpack;
#X msg 173 120 1 10;
#X obj 209 165 line~;
#X obj 155 394 dac~;
#X obj 163 314 *~ 0.1;
#X obj 182 348 freeverb~;
#X obj 117 168 phasor~;
#X obj 61 140 / 2;
#X msg 209 142 0 10;
#X connect 0 0 5 0;
#X connect 1 0 12 0;
#X connect 2 0 9 0;
#X connect 3 0 13 0;
#X connect 4 0 6 0;
#X connect 4 0 3 0;
#X connect 5 0 1 0;
#X connect 5 0 4 0;
#X connect 6 0 7 0;
#X connect 7 0 2 1;
#X connect 9 0 10 0;
#X connect 9 0 8 0;
#X connect 9 0 8 1;
#X connect 10 0 8 0;
#X connect 10 0 8 1;
#X connect 11 0 2 0;
#X connect 12 0 11 0;
#X connect 13 0 7 0;
