#N canvas 82 373 581 477 10;
#X obj 211 18 inlet;
#X obj 215 79 mtof;
#X obj 213 272 *~;
#X obj 323 116 delay 100;
#X obj 299 92 bng 15 250 50 0 empty empty empty 17 7 0 10 -262144 -1
-1;
#X obj 215 50 unpack;
#X obj 323 161 line~;
#X obj 214 421 dac~;
#X obj 224 392 *~ 0.1;
#X obj 248 326 freeverb~;
#X msg 340 230 dry 0.8;
#X msg 420 222 wet 0.5;
#X msg 324 137 0 1000;
#X obj 27 188 phasor~;
#X obj 26 214 *~ 2;
#X obj 26 239 -~ 1;
#X obj 24 265 clip~ 0 1;
#X obj 59 143 * -1;
#X obj 91 188 phasor~;
#X obj 90 214 *~ 2;
#X obj 90 239 -~ 1;
#X obj 88 265 clip~ 0 1;
#X msg 177 142 0;
#X obj 47 296 +~;
#X msg 287 116 1 30;
#X connect 0 0 5 0;
#X connect 1 0 17 0;
#X connect 1 0 13 0;
#X connect 2 0 9 0;
#X connect 3 0 12 0;
#X connect 4 0 24 0;
#X connect 4 0 3 0;
#X connect 4 0 11 0;
#X connect 4 0 10 0;
#X connect 5 0 1 0;
#X connect 5 0 4 0;
#X connect 6 0 2 1;
#X connect 8 0 7 0;
#X connect 8 0 7 1;
#X connect 9 0 8 0;
#X connect 10 0 9 0;
#X connect 11 0 9 0;
#X connect 12 0 6 0;
#X connect 13 0 14 0;
#X connect 14 0 15 0;
#X connect 15 0 16 0;
#X connect 16 0 23 0;
#X connect 17 0 18 0;
#X connect 18 0 19 0;
#X connect 19 0 20 0;
#X connect 20 0 21 0;
#X connect 21 0 23 1;
#X connect 22 0 18 1;
#X connect 22 0 13 1;
#X connect 23 0 2 0;
#X connect 24 0 6 0;
